<?xml version="1.0" encoding="UTF-8"?>
<svg xmlns="http://www.w3.org/2000/svg" xmlns:xlink="http://www.w3.org/1999/xlink" width="50px" height="49px" viewBox="0 0 50 49" version="1.1">
<g id="surface1">
<path style=" stroke:none;fill-rule:nonzero;fill:rgb(0%,0%,0%);fill-opacity:1;" d="M 24.6875 0.0859375 C 24.59375 0.136719 24.480469 0.226562 24.4375 0.289062 C 24.355469 0.398438 24.355469 0.449219 24.335938 3.375 L 24.316406 6.351562 L 23.898438 6.464844 C 22.324219 6.878906 21.113281 8.117188 20.722656 9.710938 L 20.636719 10.0625 L 9.339844 10.101562 L 9.230469 10.1875 C 9.03125 10.335938 8.945312 10.503906 8.945312 10.753906 C 8.945312 11 9.03125 11.171875 9.230469 11.320312 L 9.339844 11.402344 L 20.636719 11.441406 L 20.722656 11.796875 C 21.113281 13.386719 22.324219 14.628906 23.898438 15.042969 L 24.316406 15.152344 L 24.316406 17.941406 L 23.738281 17.953125 L 23.164062 17.964844 L 23.171875 29.652344 L 23.183594 41.339844 L 25.089844 41.351562 L 26.992188 41.359375 L 26.992188 17.960938 L 26.339844 17.953125 L 25.683594 17.941406 L 25.683594 15.152344 L 26.101562 15.042969 C 27.675781 14.628906 28.886719 13.386719 29.277344 11.796875 L 29.363281 11.441406 L 35.023438 11.421875 C 40.53125 11.402344 40.691406 11.398438 40.800781 11.328125 C 41.046875 11.167969 41.160156 10.910156 41.113281 10.628906 C 41.085938 10.46875 40.917969 10.242188 40.765625 10.152344 C 40.703125 10.113281 39.355469 10.097656 35.023438 10.082031 L 29.363281 10.0625 L 29.277344 9.710938 C 28.886719 8.117188 27.675781 6.878906 26.101562 6.464844 L 25.683594 6.351562 L 25.664062 3.375 C 25.644531 0.449219 25.644531 0.398438 25.5625 0.289062 C 25.460938 0.144531 25.175781 0 25 0 C 24.921875 0 24.78125 0.0390625 24.6875 0.0859375 Z M 24.328125 8.867188 L 24.316406 10.0625 L 21.894531 10.0625 L 21.90625 9.964844 C 21.933594 9.777344 22.148438 9.277344 22.304688 9.03125 C 22.632812 8.527344 23.042969 8.152344 23.554688 7.894531 C 23.867188 7.730469 24.261719 7.597656 24.308594 7.640625 C 24.324219 7.652344 24.332031 8.203125 24.328125 8.867188 Z M 26.449219 7.894531 C 26.980469 8.164062 27.386719 8.546875 27.71875 9.082031 C 27.910156 9.394531 28.144531 10 28.09375 10.050781 C 28.074219 10.070312 27.527344 10.078125 26.871094 10.074219 L 25.683594 10.0625 L 25.671875 8.882812 C 25.667969 8.230469 25.671875 7.679688 25.679688 7.652344 C 25.707031 7.589844 26.089844 7.710938 26.449219 7.894531 Z M 24.316406 12.664062 L 24.316406 13.882812 L 24.21875 13.871094 C 24.035156 13.847656 23.492188 13.601562 23.238281 13.433594 C 22.609375 13 22.148438 12.375 21.941406 11.671875 C 21.90625 11.5625 21.890625 11.457031 21.90625 11.445312 C 21.917969 11.429688 22.464844 11.425781 23.121094 11.429688 L 24.316406 11.441406 Z M 28.09375 11.539062 C 28.039062 11.914062 27.644531 12.625 27.273438 13.011719 C 26.914062 13.378906 26.148438 13.820312 25.78125 13.871094 L 25.683594 13.882812 L 25.671875 12.703125 C 25.667969 12.054688 25.671875 11.496094 25.683594 11.46875 C 25.695312 11.429688 25.957031 11.421875 26.902344 11.429688 L 28.105469 11.441406 Z M 25.285156 18.277344 L 25.390625 18.394531 L 25.390625 24.726562 C 25.390625 31.761719 25.414062 31.179688 25.132812 31.296875 C 25.019531 31.347656 24.980469 31.347656 24.867188 31.296875 C 24.585938 31.179688 24.609375 31.761719 24.609375 24.730469 L 24.609375 18.40625 L 24.691406 18.300781 C 24.859375 18.085938 25.101562 18.074219 25.285156 18.277344 Z M 25.285156 18.277344 "/>
<path style=" stroke:none;fill-rule:nonzero;fill:rgb(0%,0%,0%);fill-opacity:1;" d="M 9.8125 13.351562 C 9.75 13.496094 7.902344 17.535156 5.703125 22.332031 C 3.507812 27.132812 1.699219 31.082031 1.691406 31.109375 C 1.675781 31.148438 1.835938 31.15625 2.460938 31.148438 L 3.253906 31.136719 L 6.570312 23.96875 C 8.394531 20.027344 9.902344 16.785156 9.917969 16.769531 C 9.945312 16.746094 12.847656 22.976562 16.089844 30.003906 L 16.621094 31.15625 L 18.199219 31.15625 L 18.089844 30.910156 C 17.859375 30.398438 9.992188 13.210938 9.960938 13.15625 C 9.9375 13.113281 9.898438 13.164062 9.8125 13.351562 Z M 9.8125 13.351562 "/>
<path style=" stroke:none;fill-rule:nonzero;fill:rgb(0%,0%,0%);fill-opacity:1;" d="M 35.957031 22.066406 C 33.707031 26.988281 31.847656 31.050781 31.828125 31.085938 C 31.796875 31.152344 31.84375 31.15625 32.585938 31.15625 L 33.378906 31.15625 L 33.910156 30.003906 C 37.148438 22.984375 40.054688 16.746094 40.082031 16.769531 C 40.097656 16.785156 41.605469 20.027344 43.429688 23.96875 L 46.746094 31.136719 L 47.539062 31.148438 C 48.164062 31.15625 48.324219 31.148438 48.308594 31.109375 C 48.25 30.957031 40.105469 13.171875 40.082031 13.144531 C 40.066406 13.128906 38.210938 17.144531 35.957031 22.066406 Z M 35.957031 22.066406 "/>
<path style=" stroke:none;fill-rule:nonzero;fill:rgb(0%,0%,0%);fill-opacity:1;" d="M 0.488281 31.980469 C 0.296875 32.066406 0.101562 32.285156 0.0390625 32.476562 C -0.0703125 32.816406 0.109375 33.261719 0.425781 33.429688 L 0.597656 33.519531 L 9.9375 33.519531 C 18.914062 33.519531 19.285156 33.515625 19.433594 33.445312 C 19.742188 33.308594 19.90625 33.003906 19.875 32.628906 C 19.851562 32.347656 19.710938 32.140625 19.449219 32.007812 L 19.242188 31.90625 L 9.945312 31.90625 C 1.035156 31.90625 0.636719 31.910156 0.488281 31.980469 Z M 0.488281 31.980469 "/>
<path style=" stroke:none;fill-rule:nonzero;fill:rgb(0%,0%,0%);fill-opacity:1;" d="M 30.550781 32.007812 C 30.289062 32.140625 30.148438 32.347656 30.125 32.628906 C 30.09375 33.003906 30.257812 33.308594 30.566406 33.445312 C 30.714844 33.515625 31.085938 33.519531 40.0625 33.519531 L 49.402344 33.519531 L 49.574219 33.429688 C 49.890625 33.261719 50.070312 32.816406 49.960938 32.476562 C 49.898438 32.285156 49.703125 32.066406 49.511719 31.980469 C 49.363281 31.910156 48.964844 31.90625 40.054688 31.90625 L 30.757812 31.90625 Z M 30.550781 32.007812 "/>
<path style=" stroke:none;fill-rule:nonzero;fill:rgb(0%,0%,0%);fill-opacity:1;" d="M 1.972656 34.238281 C 2.027344 34.488281 2.324219 35.242188 2.527344 35.644531 C 3.796875 38.144531 6.144531 39.800781 8.914062 40.160156 C 9.59375 40.246094 10.679688 40.21875 11.328125 40.101562 C 13.007812 39.796875 14.460938 39.046875 15.679688 37.851562 C 16.171875 37.371094 16.46875 37.011719 16.847656 36.433594 C 17.25 35.824219 17.734375 34.773438 17.867188 34.21875 L 17.890625 34.109375 L 1.945312 34.109375 Z M 1.972656 34.238281 "/>
<path style=" stroke:none;fill-rule:nonzero;fill:rgb(0%,0%,0%);fill-opacity:1;" d="M 32.132812 34.21875 C 32.246094 34.6875 32.675781 35.675781 32.996094 36.199219 C 33.8125 37.53125 34.972656 38.617188 36.320312 39.300781 C 37.496094 39.90625 38.53125 40.167969 39.84375 40.203125 C 41.71875 40.257812 43.402344 39.742188 44.914062 38.652344 C 46.21875 37.710938 47.285156 36.304688 47.839844 34.800781 C 47.925781 34.558594 48.011719 34.308594 48.027344 34.238281 L 48.054688 34.109375 L 32.109375 34.109375 Z M 32.132812 34.21875 "/>
<path style=" stroke:none;fill-rule:nonzero;fill:rgb(0%,0%,0%);fill-opacity:1;" d="M 21.8125 42.0625 C 21.308594 42.144531 20.945312 42.667969 21.054688 43.15625 C 21.132812 43.496094 21.289062 43.695312 21.601562 43.835938 C 21.773438 43.914062 21.84375 43.917969 24.957031 43.917969 C 27.339844 43.917969 28.175781 43.90625 28.296875 43.871094 C 28.527344 43.800781 28.835938 43.480469 28.902344 43.238281 C 29.050781 42.714844 28.707031 42.171875 28.167969 42.066406 C 27.933594 42.023438 22.078125 42.019531 21.8125 42.0625 Z M 21.8125 42.0625 "/>
<path style=" stroke:none;fill-rule:nonzero;fill:rgb(0%,0%,0%);fill-opacity:1;" d="M 17.972656 44.605469 C 17.488281 44.78125 17.242188 45.390625 17.464844 45.867188 C 17.566406 46.085938 17.796875 46.292969 18.003906 46.351562 C 18.207031 46.417969 31.742188 46.421875 31.964844 46.355469 C 32.164062 46.300781 32.414062 46.070312 32.511719 45.847656 C 32.710938 45.390625 32.503906 44.835938 32.050781 44.625 C 31.898438 44.554688 31.636719 44.550781 25 44.554688 C 19.6875 44.554688 18.074219 44.566406 17.972656 44.605469 Z M 17.972656 44.605469 "/>
<path style=" stroke:none;fill-rule:nonzero;fill:rgb(0%,0%,0%);fill-opacity:1;" d="M 13.625 47.148438 C 12.886719 47.273438 12.601562 48.183594 13.128906 48.71875 C 13.433594 49.027344 12.324219 49 25.0625 48.992188 L 36.472656 48.980469 L 36.664062 48.863281 C 37.019531 48.636719 37.199219 48.152344 37.070312 47.757812 C 37.003906 47.558594 36.773438 47.308594 36.5625 47.210938 L 36.386719 47.128906 L 25.097656 47.125 C 18.890625 47.121094 13.726562 47.132812 13.625 47.148438 Z M 13.625 47.148438 "/>
</g>
</svg>
